HIERARCHY
ROOT Hips
{
	OFFSET -395.419647 -566.670227 89.000702
	CHANNELS 6 Xposition Yposition Zposition Zrotation Yrotation Xrotation
	JOINT Spine
	{
		OFFSET 0.000000 2.080078 8.814247
		CHANNELS 6 Xposition Yposition Zposition Zrotation Yrotation Xrotation
		JOINT Spine1
		{
			OFFSET 0.000000 0.000000 8.844139
			CHANNELS 6 Xposition Yposition Zposition Zrotation Yrotation Xrotation
			JOINT Spine2
			{
				OFFSET 0.000000 0.000000 11.682266
				CHANNELS 6 Xposition Yposition Zposition Zrotation Yrotation Xrotation
				JOINT Spine3
				{
					OFFSET 0.000000 0.000000 11.746704
					CHANNELS 6 Xposition Yposition Zposition Zrotation Yrotation Xrotation
					JOINT Neck
					{
						OFFSET 0.000000 0.000000 17.658264
						CHANNELS 6 Xposition Yposition Zposition Zrotation Yrotation Xrotation
						JOINT Neck1
						{
							OFFSET 0.000000 0.000000 5.101517
							CHANNELS 6 Xposition Yposition Zposition Zrotation Yrotation Xrotation
							JOINT Head
							{
								OFFSET 0.000000 0.000000 5.101517
								CHANNELS 6 Xposition Yposition Zposition Zrotation Yrotation Xrotation
								JOINT HeadEnd
								{
									OFFSET 0.000000 0.000000 11.655090
									CHANNELS 6 Xposition Yposition Zposition Zrotation Yrotation Xrotation
									End Site
									{
										OFFSET 0.000000 0.000000 0.100006
									}
								}
							}
						}
					}
					JOINT RightShoulder
					{
						OFFSET -2.625397 0.000000 11.175217
						CHANNELS 6 Xposition Yposition Zposition Zrotation Yrotation Xrotation
						JOINT RightArm
						{
							OFFSET 0.000000 0.000000 10.434708
							CHANNELS 6 Xposition Yposition Zposition Zrotation Yrotation Xrotation
							JOINT RightForeArm
							{
								OFFSET 0.000000 0.000000 29.628418
								CHANNELS 6 Xposition Yposition Zposition Zrotation Yrotation Xrotation
								JOINT RightHand
								{
									OFFSET 0.000000 0.000000 22.857605
									CHANNELS 6 Xposition Yposition Zposition Zrotation Yrotation Xrotation
									JOINT RightHandThumb1
									{
										OFFSET -2.867310 -2.944275 3.959564
										CHANNELS 6 Xposition Yposition Zposition Zrotation Yrotation Xrotation
										JOINT RightHandThumb2
										{
											OFFSET 0.000000 0.000000 3.350403
											CHANNELS 6 Xposition Yposition Zposition Zrotation Yrotation Xrotation
											JOINT RightHandThumb3
											{
												OFFSET 0.000000 0.000000 3.756516
												CHANNELS 6 Xposition Yposition Zposition Zrotation Yrotation Xrotation
												JOINT RightHandThumb4
												{
													OFFSET 0.000000 0.000000 3.147339
													CHANNELS 6 Xposition Yposition Zposition Zrotation Yrotation Xrotation
													End Site
													{
														OFFSET 0.000000 0.000000 0.100006
													}
												}
											}
										}
									}
									JOINT RightHandIndex1
									{
										OFFSET -0.086761 -2.345276 10.030899
										CHANNELS 6 Xposition Yposition Zposition Zrotation Yrotation Xrotation
										JOINT RightHandIndex2
										{
											OFFSET 0.000000 0.000000 4.061096
											CHANNELS 6 Xposition Yposition Zposition Zrotation Yrotation Xrotation
											JOINT RightHandIndex3
											{
												OFFSET 0.000000 0.000000 3.248871
												CHANNELS 6 Xposition Yposition Zposition Zrotation Yrotation Xrotation
												JOINT RightHandIndex4
												{
													OFFSET 0.000000 0.000000 2.639709
													CHANNELS 6 Xposition Yposition Zposition Zrotation Yrotation Xrotation
													End Site
													{
														OFFSET 0.000000 0.000000 0.100006
													}
												}
											}
										}
									}
									JOINT RightHandMiddle1
									{
										OFFSET 0.104095 -0.006775 9.502945
										CHANNELS 6 Xposition Yposition Zposition Zrotation Yrotation Xrotation
										JOINT RightHandMiddle2
										{
											OFFSET 0.000000 0.000000 4.568726
											CHANNELS 6 Xposition Yposition Zposition Zrotation Yrotation Xrotation
											JOINT RightHandMiddle3
											{
												OFFSET 0.000000 0.000000 3.654984
												CHANNELS 6 Xposition Yposition Zposition Zrotation Yrotation Xrotation
												JOINT RightHandMiddle4
												{
													OFFSET 0.000000 0.000000 2.741241
													CHANNELS 6 Xposition Yposition Zposition Zrotation Yrotation Xrotation
													End Site
													{
														OFFSET 0.000000 0.000000 0.100006
													}
												}
											}
										}
									}
									JOINT RightHandRing1
									{
										OFFSET 0.086761 2.267456 8.921707
										CHANNELS 6 Xposition Yposition Zposition Zrotation Yrotation Xrotation
										JOINT RightHandRing2
										{
											OFFSET 0.000000 0.000000 4.061096
											CHANNELS 6 Xposition Yposition Zposition Zrotation Yrotation Xrotation
											JOINT RightHandRing3
											{
												OFFSET 0.000000 0.000000 3.654984
												CHANNELS 6 Xposition Yposition Zposition Zrotation Yrotation Xrotation
												JOINT RightHandRing4
												{
													OFFSET 0.000000 0.000000 2.741241
													CHANNELS 6 Xposition Yposition Zposition Zrotation Yrotation Xrotation
													End Site
													{
														OFFSET 0.000000 0.000000 0.100006
													}
												}
											}
										}
									}
									JOINT RightHandPinky1
									{
										OFFSET -0.173492 4.467224 7.976990
										CHANNELS 6 Xposition Yposition Zposition Zrotation Yrotation Xrotation
										JOINT RightHandPinky2
										{
											OFFSET 0.000000 0.000000 3.350403
											CHANNELS 6 Xposition Yposition Zposition Zrotation Yrotation Xrotation
											JOINT RightHandPinky3
											{
												OFFSET 0.000000 0.000000 2.842758
												CHANNELS 6 Xposition Yposition Zposition Zrotation Yrotation Xrotation
												JOINT RightHandPinky4
												{
													OFFSET 0.000000 0.000000 2.639709
													CHANNELS 6 Xposition Yposition Zposition Zrotation Yrotation Xrotation
													End Site
													{
														OFFSET 0.000000 0.000000 0.100006
													}
												}
											}
										}
									}
									JOINT RightForeArmEnd
									{
										OFFSET 0.000000 0.000000 0.000000
										CHANNELS 6 Xposition Yposition Zposition Zrotation Yrotation Xrotation
										End Site
										{
											OFFSET 0.000000 0.000000 0.100006
										}
									}
								}
								JOINT RightArmEnd
								{
									OFFSET 0.000000 0.000000 0.000000
									CHANNELS 6 Xposition Yposition Zposition Zrotation Yrotation Xrotation
									End Site
									{
										OFFSET 0.000000 0.000000 0.100006
									}
								}
							}
						}
					}
					JOINT LeftShoulder
					{
						OFFSET 2.625397 0.000000 11.175217
						CHANNELS 6 Xposition Yposition Zposition Zrotation Yrotation Xrotation
						JOINT LeftArm
						{
							OFFSET 0.000000 0.000000 10.813629
							CHANNELS 6 Xposition Yposition Zposition Zrotation Yrotation Xrotation
							JOINT LeftForeArm
							{
								OFFSET 0.000000 0.000000 28.724777
								CHANNELS 6 Xposition Yposition Zposition Zrotation Yrotation Xrotation
								JOINT LeftHand
								{
									OFFSET 0.644379 0.328857 25.716171
									CHANNELS 6 Xposition Yposition Zposition Zrotation Yrotation Xrotation
									JOINT LeftHandThumb1
									{
										OFFSET 2.867310 -2.944275 3.959564
										CHANNELS 6 Xposition Yposition Zposition Zrotation Yrotation Xrotation
										JOINT LeftHandThumb2
										{
											OFFSET 0.000000 0.000000 3.350403
											CHANNELS 6 Xposition Yposition Zposition Zrotation Yrotation Xrotation
											JOINT LeftHandThumb3
											{
												OFFSET 0.000000 0.000000 3.756516
												CHANNELS 6 Xposition Yposition Zposition Zrotation Yrotation Xrotation
												JOINT LeftHandThumb4
												{
													OFFSET 0.000000 0.000000 3.100006
													CHANNELS 6 Xposition Yposition Zposition Zrotation Yrotation Xrotation
													End Site
													{
														OFFSET 0.000000 0.000000 0.100006
													}
												}
											}
										}
									}
									JOINT LeftHandIndex1
									{
										OFFSET 0.086761 -2.345276 10.030899
										CHANNELS 6 Xposition Yposition Zposition Zrotation Yrotation Xrotation
										JOINT LeftHandIndex2
										{
											OFFSET 0.000000 0.000000 4.061096
											CHANNELS 6 Xposition Yposition Zposition Zrotation Yrotation Xrotation
											JOINT LeftHandIndex3
											{
												OFFSET 0.000000 0.000000 3.248871
												CHANNELS 6 Xposition Yposition Zposition Zrotation Yrotation Xrotation
												JOINT LeftHandIndex4
												{
													OFFSET 0.000000 0.000000 2.639709
													CHANNELS 6 Xposition Yposition Zposition Zrotation Yrotation Xrotation
													End Site
													{
														OFFSET 0.000000 0.000000 0.100006
													}
												}
											}
										}
									}
									JOINT LeftHandMiddle1
									{
										OFFSET -0.104095 -0.006775 9.502945
										CHANNELS 6 Xposition Yposition Zposition Zrotation Yrotation Xrotation
										JOINT LeftHandMiddle2
										{
											OFFSET 0.000000 0.000000 4.568726
											CHANNELS 6 Xposition Yposition Zposition Zrotation Yrotation Xrotation
											JOINT LeftHandMiddle3
											{
												OFFSET 0.000000 0.000000 3.654984
												CHANNELS 6 Xposition Yposition Zposition Zrotation Yrotation Xrotation
												JOINT LeftHandMiddle4
												{
													OFFSET 0.000000 0.000000 2.741241
													CHANNELS 6 Xposition Yposition Zposition Zrotation Yrotation Xrotation
													End Site
													{
														OFFSET 0.000000 0.000000 0.100006
													}
												}
											}
										}
									}
									JOINT LeftHandRing1
									{
										OFFSET -0.086761 2.267456 8.921707
										CHANNELS 6 Xposition Yposition Zposition Zrotation Yrotation Xrotation
										JOINT LeftHandRing2
										{
											OFFSET 0.000000 0.000000 4.061096
											CHANNELS 6 Xposition Yposition Zposition Zrotation Yrotation Xrotation
											JOINT LeftHandRing3
											{
												OFFSET 0.000000 0.000000 3.654984
												CHANNELS 6 Xposition Yposition Zposition Zrotation Yrotation Xrotation
												JOINT LeftHandRing4
												{
													OFFSET 0.000000 0.000000 2.741241
													CHANNELS 6 Xposition Yposition Zposition Zrotation Yrotation Xrotation
													End Site
													{
														OFFSET 0.000000 0.000000 0.100006
													}
												}
											}
										}
									}
									JOINT LeftHandPinky1
									{
										OFFSET 0.173492 4.467224 7.976990
										CHANNELS 6 Xposition Yposition Zposition Zrotation Yrotation Xrotation
										JOINT LeftHandPinky2
										{
											OFFSET 0.000000 0.000000 3.350403
											CHANNELS 6 Xposition Yposition Zposition Zrotation Yrotation Xrotation
											JOINT LeftHandPinky3
											{
												OFFSET 0.000000 0.000000 2.842758
												CHANNELS 6 Xposition Yposition Zposition Zrotation Yrotation Xrotation
												JOINT LeftHandPinky4
												{
													OFFSET 0.000000 0.000000 2.639709
													CHANNELS 6 Xposition Yposition Zposition Zrotation Yrotation Xrotation
													End Site
													{
														OFFSET 0.000000 0.000000 0.100006
													}
												}
											}
										}
									}
									JOINT LeftForeArmEnd
									{
										OFFSET 0.000000 0.000000 0.000000
										CHANNELS 6 Xposition Yposition Zposition Zrotation Yrotation Xrotation
										End Site
										{
											OFFSET 0.000000 0.000000 0.100006
										}
									}
								}
								JOINT LeftArmEnd
								{
									OFFSET 0.000000 0.000000 0.000000
									CHANNELS 6 Xposition Yposition Zposition Zrotation Yrotation Xrotation
									End Site
									{
										OFFSET 0.000000 0.000000 0.100006
									}
								}
							}
						}
					}
				}
			}
		}
	}
	JOINT RightUpLeg
	{
		OFFSET -11.289948 0.000000 0.000000
		CHANNELS 6 Xposition Yposition Zposition Zrotation Yrotation Xrotation
		JOINT RightLeg
		{
			OFFSET 0.000000 0.000000 -38.200329
			CHANNELS 6 Xposition Yposition Zposition Zrotation Yrotation Xrotation
			JOINT RightFoot
			{
				OFFSET 0.000000 0.000000 -39.900856
				CHANNELS 6 Xposition Yposition Zposition Zrotation Yrotation Xrotation
				JOINT RightToeBase
				{
					OFFSET 0.000000 -15.261658 0.000001
					CHANNELS 6 Xposition Yposition Zposition Zrotation Yrotation Xrotation
					JOINT RightToeBaseEnd
					{
						OFFSET 0.000000 -7.370728 0.000001
						CHANNELS 6 Xposition Yposition Zposition Zrotation Yrotation Xrotation
						End Site
						{
							OFFSET 0.000000 0.000000 0.100000
						}
					}
				}
				JOINT RightLegEnd
				{
					OFFSET 0.000000 0.000000 0.000000
					CHANNELS 6 Xposition Yposition Zposition Zrotation Yrotation Xrotation
					End Site
					{
						OFFSET 0.000000 0.000000 0.100000
					}
				}
			}
			JOINT RightUpLegEnd
			{
				OFFSET 0.000000 0.000000 0.000000
				CHANNELS 6 Xposition Yposition Zposition Zrotation Yrotation Xrotation
				End Site
				{
					OFFSET 0.000000 0.000000 0.099998
				}
			}
		}
	}
	JOINT LeftUpLeg
	{
		OFFSET 11.315674 0.000000 0.000000
		CHANNELS 6 Xposition Yposition Zposition Zrotation Yrotation Xrotation
		JOINT LeftLeg
		{
			OFFSET 0.000000 0.000000 -38.200329
			CHANNELS 6 Xposition Yposition Zposition Zrotation Yrotation Xrotation
			JOINT LeftFoot
			{
				OFFSET 0.000000 0.000000 -39.900856
				CHANNELS 6 Xposition Yposition Zposition Zrotation Yrotation Xrotation
				JOINT LeftToeBase
				{
					OFFSET 0.000000 -15.261658 0.000001
					CHANNELS 6 Xposition Yposition Zposition Zrotation Yrotation Xrotation
					JOINT LeftToeBaseEnd
					{
						OFFSET 0.000000 -7.539978 0.000001
						CHANNELS 6 Xposition Yposition Zposition Zrotation Yrotation Xrotation
						End Site
						{
							OFFSET 0.000000 0.000000 0.100000
						}
					}
				}
				JOINT LeftLegEnd
				{
					OFFSET 0.000000 0.000000 0.000000
					CHANNELS 6 Xposition Yposition Zposition Zrotation Yrotation Xrotation
					End Site
					{
						OFFSET 0.000000 0.000000 0.100000
					}
				}
			}
			JOINT LeftUpLegEnd
			{
				OFFSET 0.000000 0.000000 0.000000
				CHANNELS 6 Xposition Yposition Zposition Zrotation Yrotation Xrotation
				End Site
				{
					OFFSET 0.000000 0.000000 0.099998
				}
			}
		}
	}
}
MOTION
Frames: 2
Frame Time: 0.016667
0.358307 2.299194 86.081635 1.417168 6.666186 -15.665493 0.000005 2.080096 8.814247 -1.265770 -5.401052 7.801903 -0.000007 0.000026 8.844139 -0.315570 -0.536145 2.532331 0.000002 -0.000008 11.682283 -2.377911 -1.316474 8.476462 0.000009 0.000034 11.746685 -0.255910 -0.382467 6.946939 -0.000010 -0.000019 17.658270 -9.009001 1.213275 12.142230 -0.000005 0.000005 5.101528 -9.575439 3.884963 -1.393720 0.000011 0.000004 5.101562 -1.212721 -1.887110 -23.593656 0.000001 0.000005 11.655070 -0.000001 -0.000000 0.000000 -2.625416 0.000019 11.175185 9.639878 -83.210904 -0.572680 -0.000008 0.000004 10.434731 58.232847 -35.227305 -44.554977 -0.000004 -0.000015 29.628384 30.437061 -0.424597 98.093900 -0.000004 -0.000015 22.857574 82.182523 -51.304778 -14.954899 -2.867290 -2.944290 3.959503 31.530195 -18.328316 49.913984 -0.000008 0.000023 3.350395 -15.033111 9.283048 -26.791410 0.000019 -0.000015 3.756542 -9.969994 7.211242 -18.309562 -0.000008 -0.000007 3.147341 -0.000001 -0.000002 0.000003 -0.086769 -2.345276 10.030899 -13.020968 -20.711036 22.823116 0.000039 0.000010 4.061110 0.142740 -16.757254 2.425307 0.000039 0.000010 3.248882 -0.357275 -16.757005 2.425315 0.000033 0.000001 2.639724 0.000000 0.000000 0.000000 0.104074 -0.006786 9.502945 -7.672800 -20.873936 14.728243 0.000015 0.000019 4.568750 0.387671 -15.432570 0.828958 -0.000031 0.000006 3.655005 -0.112319 -15.432538 0.828954 0.000030 -0.000008 2.741246 0.000000 -0.000001 -0.000001 0.086771 2.267454 8.921726 1.000311 -20.997513 5.047325 -0.000005 -0.000010 4.061107 -0.883415 -14.578547 -0.911457 0.000008 -0.000005 3.654993 0.116582 -14.578457 -0.911460 0.000035 -0.000006 2.741244 0.000001 0.000000 -0.000000 -0.173485 4.467241 7.976974 10.342580 -17.414974 -4.839621 0.000013 0.000031 3.350395 -1.725381 -12.592161 -2.488602 0.000042 -0.000016 2.842772 0.274631 -12.591877 -2.488615 0.000013 0.000000 2.639694 0.000000 0.000000 -0.000000 -0.000009 0.000012 -0.000001 -0.000001 0.000001 0.000004 -0.000005 0.000004 0.000012 0.000001 0.000000 -0.000003 2.625408 0.000027 11.175214 -5.605146 81.771749 -0.095447 0.000008 -0.000010 10.813667 -66.051098 35.394238 -62.774643 0.000013 0.000024 28.724718 -27.287748 0.100726 91.656556 0.644371 0.328896 25.716225 -105.057038 50.275428 -27.745533 2.867298 -2.944290 3.959587 -31.644686 17.093786 51.773039 0.000011 0.000015 3.350399 12.293582 -8.271567 -22.243814 -0.000006 -0.000008 3.756512 8.189165 -6.261714 -15.233381 0.000006 0.000015 3.100004 -0.000002 0.000002 -0.000000 0.086754 -2.345299 10.030922 -6.168258 15.267769 8.340785 0.000005 0.000024 4.061088 0.381570 9.766211 -1.386147 -0.000015 0.000031 3.248875 -0.118421 9.766412 -1.386145 -0.000015 -0.000007 2.639722 0.000003 0.000000 -0.000001 -0.104092 -0.006756 9.502968 -1.027269 14.647925 7.005235 -0.000013 0.000006 4.568748 0.452946 10.078310 -0.533705 0.000016 -0.000002 3.654988 -0.047066 10.078283 -0.533701 0.000006 -0.000012 2.741238 0.000001 -0.000003 0.000003 -0.086758 2.267478 8.921719 7.856434 16.959740 6.441194 -0.000005 0.000021 4.061086 -0.916862 12.358208 0.767835 0.000016 -0.000013 3.654973 0.083135 12.358239 0.767840 -0.000033 -0.000012 2.741268 0.000001 -0.000001 -0.000000 0.173485 4.467276 7.977013 17.127282 17.835403 7.162075 -0.000008 0.000021 3.350389 -1.695619 13.242152 2.621745 0.000012 0.000004 2.842772 0.304302 13.242209 2.621540 -0.000002 -0.000002 2.639711 0.000001 -0.000001 0.000000 -0.000003 -0.000008 0.000004 0.000002 0.000000 -0.000000 -0.000018 -0.000011 0.000018 0.000001 0.000000 -0.000005 -11.289955 -0.000025 -0.000015 -11.172017 -8.863157 22.103756 0.000004 -0.000007 -38.200325 -0.160223 0.018466 6.033811 -0.000010 0.000053 -39.900856 -13.000426 6.167738 11.884012 0.000009 -15.261658 0.000014 0.880628 -0.412183 -15.979660 -0.000009 -7.370665 0.000000 -0.000000 0.000000 0.000000 -0.000003 -0.000001 -0.000000 0.000000 0.000000 -0.000002 0.000001 -0.000002 0.000004 0.000000 0.000000 -0.000000 11.315659 -0.000030 -0.000008 15.055793 -21.593228 -9.152897 0.000018 -0.000001 -38.200325 0.888421 -0.488038 28.798444 -0.000004 0.000021 -39.900856 24.936616 9.700978 24.568756 -0.000041 -15.261734 0.000008 -0.183588 -3.003800 -18.686283 0.000016 -7.539971 -0.000000 -0.000001 -0.000000 0.000001 -0.000032 0.000049 -0.000001 0.000002 0.000001 -0.000000 0.000003 -0.000005 -0.000002 0.000001 -0.000000 -0.000001 
0.356232 2.377319 86.049011 1.444631 6.719815 -15.967217 0.000005 2.080062 8.814266 -1.264319 -5.307353 7.831389 -0.000014 -0.000046 8.844144 -0.302149 -0.492765 2.483630 0.000010 0.000013 11.682269 -2.442728 -1.395919 8.732032 0.000006 -0.000008 11.746718 -0.278123 -0.540272 6.912816 0.000018 -0.000006 17.658291 -9.289722 0.291012 12.266688 0.000016 -0.000050 5.101519 -9.677665 3.843995 -1.490447 0.000006 -0.000041 5.101532 -1.202118 -1.880206 -23.470246 -0.000005 0.000008 11.655057 -0.000001 -0.000000 0.000000 -2.625401 -0.000021 11.175210 10.325901 -83.636527 -0.610622 0.000000 -0.000002 10.434715 55.474585 -36.566268 -40.296743 0.000010 -0.000034 29.628368 30.297449 -0.429712 95.484747 -0.000031 0.000000 22.857613 79.167896 -53.964853 -16.414565 -2.867306 -2.944305 3.959534 31.510917 -18.686303 49.385270 0.000011 0.000015 3.350433 -15.831327 9.532159 -28.101459 0.000015 0.000008 3.756535 -10.488687 7.464907 -19.194997 -0.000015 0.000013 3.147330 0.000000 -0.000002 0.000003 -0.086769 -2.345284 10.030869 -13.599136 -22.730755 22.413165 0.000006 -0.000020 4.061098 0.079337 -18.125565 2.636835 0.000027 0.000012 3.248869 -0.420658 -18.125553 2.636836 -0.000027 0.000009 2.639711 -0.000001 -0.000001 -0.000001 0.104097 -0.006763 9.502945 -8.093354 -22.668471 14.308284 0.000006 0.000017 4.568727 0.367949 -16.689256 0.900289 -0.000042 0.000013 3.655004 -0.132068 -16.689274 0.900290 0.000004 -0.000010 2.741258 0.000002 -0.000001 -0.000001 0.086760 2.267428 8.921715 0.739218 -22.523278 4.818636 0.000002 0.000016 4.061106 -0.864681 -15.672369 -0.983255 -0.000006 0.000009 3.654989 0.135342 -15.672371 -0.983270 -0.000016 0.000016 2.741244 -0.000002 -0.000001 -0.000001 -0.173500 4.467275 7.976978 10.217740 -18.701966 -4.433017 0.000004 0.000005 3.350439 -1.688071 -13.401295 -2.654476 0.000000 0.000017 2.842772 0.311903 -13.401306 -2.654458 0.000006 0.000008 2.639724 -0.000002 0.000002 0.000001 0.000006 0.000006 0.000003 -0.000000 0.000002 0.000004 0.000002 0.000003 0.000021 -0.000000 0.000000 -0.000004 2.625412 -0.000031 11.175229 -6.202814 81.992009 -0.130054 0.000023 0.000011 10.813663 -65.450773 37.418686 -60.621139 -0.000041 0.000009 28.724825 -27.796927 0.158842 89.284165 0.644428 0.328865 25.716217 -104.602202 49.496994 -27.892484 2.867271 -2.944290 3.959572 -31.604597 17.443441 51.240410 0.000000 0.000015 3.350433 13.067133 -8.582413 -23.536834 -0.000004 -0.000023 3.756546 8.692348 -6.542667 -16.108583 -0.000041 0.000018 3.100024 -0.000002 0.000002 0.000002 0.086769 -2.345261 10.030914 -5.836746 17.532761 7.683323 0.000009 -0.000015 4.061101 0.337605 11.410788 -1.625435 -0.000013 -0.000010 3.248890 -0.162409 11.410744 -1.625442 -0.000007 -0.000008 2.639713 -0.000000 -0.000003 0.000001 -0.104099 -0.006804 9.502975 -0.703992 16.519618 6.602695 0.000003 0.000010 4.568744 0.439320 11.422793 -0.606734 0.000011 0.000022 3.654984 -0.060686 11.423215 -0.606723 0.000001 -0.000002 2.741245 -0.000002 -0.000002 0.000001 -0.086746 2.267441 8.921722 8.106589 18.099936 6.201460 0.000006 0.000005 4.061097 -0.905584 13.152421 0.818894 0.000042 -0.000015 3.654972 0.094406 13.152300 0.818899 0.000001 -0.000012 2.741274 0.000001 -0.000000 -0.000000 0.173485 4.467265 7.976982 17.230493 18.241996 6.912558 -0.000013 0.000007 3.350416 -1.684399 13.478601 2.670372 -0.000015 0.000019 2.842758 0.315613 13.478692 2.670377 0.000015 -0.000006 2.639719 -0.000000 0.000001 -0.000000 0.000010 0.000007 -0.000016 0.000001 -0.000000 -0.000001 -0.000015 -0.000016 0.000001 0.000001 0.000001 -0.000001 -11.289959 -0.000013 0.000008 -11.302643 -8.871616 22.104456 -0.000039 0.000023 -38.200340 -0.183620 0.021161 6.572884 0.000000 0.000040 -39.900867 -13.039829 6.386730 11.535775 0.000000 -15.261656 0.000003 0.885369 -0.413925 -15.871032 -0.000036 -7.370668 0.000002 0.000000 0.000000 0.000001 0.000014 0.000001 0.000000 -0.000000 0.000000 -0.000001 0.000003 -0.000001 -0.000010 0.000000 0.000000 0.000000 11.315659 -0.000066 0.000023 15.128423 -21.726220 -9.032153 -0.000004 -0.000031 -38.200321 0.883548 -0.486881 28.902823 -0.000021 0.000062 -39.900856 24.709220 9.688546 24.457774 -0.000009 -15.261741 0.000023 -0.167599 -3.002483 -18.638198 0.000010 -7.539973 0.000002 -0.000001 0.000000 0.000000 -0.000012 0.000004 0.000000 -0.000001 0.000002 -0.000000 0.000005 0.000042 -0.000001 0.000003 0.000000 -0.000001 
